<svg version="1.1" xmlns="http://www.w3.org/2000/svg" viewBox="0 0 840 540" width="840" height="540" filter="invert(93%) hue-rotate(180deg)">
  <!-- svg-source:excalidraw -->
  
  <defs>
    <style class="style-fonts">
      @font-face {
        font-family: "Virgil";
        src: url("https://excalidraw.com/Virgil.woff2");
      }
      @font-face {
        font-family: "Cascadia";
        src: url("https://excalidraw.com/Cascadia.woff2");
      }
    </style>
  </defs>
  <g stroke-linecap="round" transform="translate(10 10) rotate(0 410 260)"><path d="M31.81 -0.96 L787.9 0.09 L794.76 1.98 L807.54 3.06 L816.82 13.43 L816.78 18.68 L820.49 32.63 L818.67 486.61 L820.91 495.17 L815.91 507.88 L806.3 516.52 L800.81 519.89 L789.56 519.52 L30.8 518.93 L25.17 521.39 L11.94 514.66 L5.76 506.24 L3.92 500.12 L-1.42 488.53 L1.54 31.2 L3.99 19.6 L7.75 9.7 L17.01 2.18 L32.1 0.76" stroke="none" stroke-width="0" fill="#868e96"></path><path d="M32 0 M32 0 C230.06 -1.05, 427.83 -0.39, 788 0 M32 0 C282.54 -2.16, 532.35 -1.66, 788 0 M788 0 C809.87 1.53, 819.24 11.35, 820 32 M788 0 C808.64 -1.77, 818.05 10.61, 820 32 M820 32 C820.66 131.98, 820.9 232.81, 820 488 M820 32 C820.94 176.92, 820.47 322.23, 820 488 M820 488 C818.01 509.45, 809.58 520.29, 788 520 M820 488 C819.11 507.15, 808.11 518.08, 788 520 M788 520 C494.86 520.66, 201.6 520.1, 32 520 M788 520 C633.06 520.89, 477.33 521.02, 32 520 M32 520 C9.02 520.4, -0.49 507.49, 0 488 M32 520 C9.8 520.15, -2.27 510.5, 0 488 M0 488 C1.08 351.73, 1.99 216.52, 0 32 M0 488 C1.78 376.9, 2.43 264.83, 0 32 M0 32 C0.8 9.99, 11.44 -1.93, 32 0 M0 32 C-1.17 10.57, 8.5 -0.31, 32 0" stroke="#000000" stroke-width="1" fill="none"></path></g><g stroke-linecap="round" transform="translate(250 55.57415641169882) rotate(0 20.69815466649385 21.915693176287636)"><path d="M0.41 -1.45 L40.29 -1.14 L40.35 42.58 L0.86 43.82" stroke="none" stroke-width="0" fill="#12b886"></path><path d="M0.2 0.36 C9.56 0.52, 23.06 0.3, 42.21 0.02 M0.09 0.14 C14.89 0.49, 29.93 0.25, 42.12 -0.42 M42.62 0.35 C41.67 10.24, 41.85 25.59, 40.67 44.06 M40.64 0.61 C41.76 13.08, 40.75 26.27, 40.73 44.64 M41.06 44.84 C24.02 45.11, 11.08 45.23, 0.89 42.1 M41.96 44.44 C26.8 43.02, 14.97 44.29, -0.27 44.02 M-1.96 42.54 C-1.39 30.08, -0.13 20.21, -0.99 1.84 M0.85 44.67 C0.63 27.69, -0.78 12.88, -0.01 -0.9" stroke="#000000" stroke-width="4" fill="none"></path></g><g transform="translate(264.13815710790016 64.98984958798646) rotate(0 6.55999755859375 12.5)"><text x="6.55999755859375" y="0" font-family="Virgil, Segoe UI Emoji" font-size="20px" fill="#000000" text-anchor="middle" style="white-space: pre;" direction="ltr" dominant-baseline="text-before-edge">A</text></g><g stroke-linecap="round" transform="translate(291.3963093329794 55.57415641169882) rotate(0 20.69815466649385 21.915693176287636)"><path d="M-1.45 -1.11 L40.26 -1.05 L40.14 44.69 L-0.01 45.7" stroke="none" stroke-width="0" fill="#12b886"></path><path d="M0.36 -1.18 C9.65 1.55, 18.3 0.78, 41.42 1.43 M0.14 -0.5 C9.01 -0.88, 17.13 0.69, 40.98 -0.29 M41.74 0.31 C39.58 13.29, 43.04 24.88, 41.62 43.9 M42.01 0.28 C41.15 13.25, 41.04 27.29, 42.2 44.66 M42.4 42.3 C30.75 45.15, 18.72 44.65, -1.73 44.43 M42.01 42.89 C27.57 44.95, 15.62 43.79, 0.19 43.73 M-1.29 42.68 C-1.24 28.38, 1.61 11.71, 1.84 1.12 M0.84 44.54 C-0.56 29.19, 0.23 15.95, -0.9 0.21" stroke="#000000" stroke-width="4" fill="none"></path></g><g transform="translate(304.8244673564069 64.98984958798646) rotate(0 7.269996643066406 12.5)"><text x="7.269996643066406" y="0" font-family="Virgil, Segoe UI Emoji" font-size="20px" fill="#000000" text-anchor="middle" style="white-space: pre;" direction="ltr" dominant-baseline="text-before-edge">B</text></g><g stroke-linecap="round" transform="translate(332.84842251433383 55.57415641169882) rotate(0 20.69815466649385 21.915693176287636)"><path d="M-1.11 -1.14 L40.35 -1.25 L42.25 43.82 L1.87 42.06" stroke="none" stroke-width="0" fill="#12b886"></path><path d="M-1.18 0.77 C16.49 0.47, 30.61 -0.05, 42.83 -1.96 M-0.5 0.65 C13.17 0.35, 28.74 -0.48, 41.11 -0.08 M41.71 -1.66 C42.15 13.42, 40.94 23.46, 41.47 44.21 M41.67 -0.22 C40.34 12.63, 40.4 26.74, 42.23 43.76 M39.87 45.33 C32.53 45.65, 21.78 42.31, 0.6 44.22 M40.45 43.22 C31.94 44.75, 20.44 44.28, -0.1 44.38 M-1.15 42.8 C0.55 30.45, -0.56 15.27, 1.12 0.36 M0.71 43.3 C-1.08 30.63, -0.38 15.99, 0.21 -0.72" stroke="#000000" stroke-width="4" fill="none"></path></g><g transform="translate(346.986579622234 64.98984958798646) rotate(0 6.55999755859375 12.5)"><text x="6.55999755859375" y="0" font-family="Virgil, Segoe UI Emoji" font-size="20px" fill="#000000" text-anchor="middle" style="white-space: pre;" direction="ltr" dominant-baseline="text-before-edge">A</text></g><g stroke-linecap="round" transform="translate(374.24473184733233 55.57415641169882) rotate(0 20.69815466649385 21.915693176287636)"><path d="M-1.14 -1.05 L40.14 0.86 L41.38 45.7 L-1.77 44.31" stroke="none" stroke-width="0" fill="#fa5252"></path><path d="M0.77 1.59 C13.37 1.06, 25.68 1.68, 39.44 0.77 M0.65 -0.84 C13.18 0.93, 25.14 -0.08, 41.32 -0.35 M39.74 0.49 C43.27 15.1, 41.7 31.73, 41.77 43.75 M41.17 -0.73 C41.33 9.18, 42.47 20.51, 41.33 43.31 M42.89 45.22 C31.28 44.41, 16.22 44.11, 0.39 42.83 M40.79 44.71 C27.32 43.17, 12.11 43.34, 0.55 44.3 M-1.03 43.95 C2.1 34, 2.12 27.26, 0.36 0.15 M-0.53 43.13 C-0.1 26.95, -1.27 10.29, -0.72 -0.55" stroke="#000000" stroke-width="4" fill="none"></path></g><g transform="translate(388.5028917018145 64.98984958798646) rotate(0 6.439994812011719 12.5)"><text x="6.439994812011719" y="0" font-family="Virgil, Segoe UI Emoji" font-size="20px" fill="#000000" text-anchor="middle" style="white-space: pre;" direction="ltr" dominant-baseline="text-before-edge">C</text></g><g stroke-linecap="round" transform="translate(416.0468873502432 55.57415641169882) rotate(0 20.69815466649385 21.915693176287636)"><path d="M-1.05 -1.25 L42.25 -0.01 L43.26 42.06 L0.48 42.6" stroke="none" stroke-width="0" fill="#12b886"></path><path d="M1.59 0.55 C13.97 -0.14, 27.74 -2.12, 42.17 0.17 M-0.84 0.41 C13.72 -0.69, 25.7 -0.35, 41.05 0.61 M41.88 1.8 C40.74 14.14, 41.53 28.2, 41.31 42.32 M40.67 -0.34 C40.85 16.64, 42.35 31.6, 40.87 43.66 M42.78 45.44 C27.79 42.41, 12.99 44.53, -1 44.95 M42.28 44.5 C26.17 43.77, 11.39 44.13, 0.47 42.85 M0.12 45.65 C-0.73 35.35, 1.37 23.56, 0.15 1.7 M-0.71 44.1 C-0.32 26.1, -0.11 9.45, -0.55 -0.57" stroke="#000000" stroke-width="4" fill="none"></path></g><g transform="translate(430.18504445814335 64.98984958798646) rotate(0 6.55999755859375 12.5)"><text x="6.55999755859375" y="0" font-family="Virgil, Segoe UI Emoji" font-size="20px" fill="#000000" text-anchor="middle" style="white-space: pre;" direction="ltr" dominant-baseline="text-before-edge">A</text></g><g stroke-linecap="round" transform="translate(457.4431966832353 55.57415641169882) rotate(0 20.69815466649385 21.915693176287636)"><path d="M-1.25 0.86 L41.38 1.87 L39.63 44.31 L-1.24 44.52" stroke="none" stroke-width="0" fill="#12b886"></path><path d="M0.55 0.82 C10.01 1.1, 18.01 0.44, 41.57 0.28 M0.41 0.72 C9.92 0.06, 20.6 0, 42.01 0.17 M43.2 -0.73 C41.26 13.9, 41.41 27.57, 39.89 45.06 M41.06 -0.66 C42.1 15.19, 41.23 28.2, 41.23 44.33 M43.01 44.72 C30.41 44.72, 23.27 43.12, 1.12 45.06 M42.06 43.56 C33.07 44.1, 24.91 44.66, -0.98 43.18 M1.82 42.85 C2.06 34.32, 0.58 22.71, 1.7 1.68 M0.27 43.82 C-0.67 27.77, -0.49 10.73, -0.57 -0.52" stroke="#000000" stroke-width="4" fill="none"></path></g><g transform="translate(470.8713547066628 64.98984958798646) rotate(0 7.269996643066406 12.5)"><text x="7.269996643066406" y="0" font-family="Virgil, Segoe UI Emoji" font-size="20px" fill="#000000" text-anchor="middle" style="white-space: pre;" direction="ltr" dominant-baseline="text-before-edge">B</text></g><g stroke-linecap="round" transform="translate(498.83950601622564 55.57415641169882) rotate(0 20.69815466649385 21.915693176287636)"><path d="M0.86 -0.01 L43.26 -1.77 L41.88 42.6 L0.69 44.09" stroke="none" stroke-width="0" fill="#12b886"></path><path d="M0.82 0.02 C15.45 -2.07, 28.8 0.06, 41.67 -1 M0.72 -0.42 C14.82 -0.25, 29.87 0.44, 41.57 0.15 M40.67 0.23 C41.57 9.89, 41.42 17.52, 42.62 44.38 M40.73 0.81 C41.91 12.1, 40.55 24.16, 41.9 43.07 M42.29 42.1 C26.47 44.55, 9.36 45.28, 1.22 41.95 M41.12 44.02 C31.39 44.66, 22.05 43.12, -0.65 43.26 M-0.99 45.67 C1.1 33.3, 0.12 23.75, 1.68 1.42 M-0.01 42.93 C0.51 32.29, -0.25 21.62, -0.52 -0.63" stroke="#000000" stroke-width="4" fill="none"></path></g><g transform="translate(512.9776631241258 64.98984958798646) rotate(0 6.55999755859375 12.5)"><text x="6.55999755859375" y="0" font-family="Virgil, Segoe UI Emoji" font-size="20px" fill="#000000" text-anchor="middle" style="white-space: pre;" direction="ltr" dominant-baseline="text-before-edge">A</text></g><g stroke-linecap="round" transform="translate(540.2358153492087 55.57415641169882) rotate(0 20.69815466649385 21.915693176287636)"><path d="M-0.01 1.87 L39.63 0.48 L40.16 44.52 L0.25 44.07" stroke="none" stroke-width="0" fill="#fa5252"></path><path d="M0.02 1.43 C13.76 0.6, 31.61 0.11, 40.39 1.3 M-0.42 -0.29 C8.86 -0.65, 18.49 -0.13, 41.55 -0.83 M41.62 0.07 C42.17 14.13, 40.28 29.65, 41.95 43.38 M42.2 0.83 C41.18 9.43, 41.08 20.4, 40.63 44.58 M39.67 44.43 C26.49 43.01, 11.93 45.24, -1.88 42.62 M41.59 43.73 C25.87 44.19, 8.27 43.07, -0.57 43.32 M1.84 44.95 C-0.04 30.58, 1.3 18.7, 1.42 -1.06 M-0.9 44.04 C-0.84 33.22, -0.69 23.2, -0.63 0.43" stroke="#000000" stroke-width="4" fill="none"></path></g><g transform="translate(553.6639733726362 64.98984958798646) rotate(0 7.269996643066406 12.5)"><text x="7.269996643066406" y="0" font-family="Virgil, Segoe UI Emoji" font-size="20px" fill="#000000" text-anchor="middle" style="white-space: pre;" direction="ltr" dominant-baseline="text-before-edge">B</text></g><g transform="translate(388.48667099717386 30) rotate(0 5.816947937011719 11.726070996663577)"><text x="0" y="0" font-family="Virgil, Segoe UI Emoji" font-size="18.355906861069695px" fill="#000000" text-anchor="start" style="white-space: pre;" direction="ltr" dominant-baseline="text-before-edge">J</text></g><g transform="translate(555.806975340718 30) rotate(0 5.000373840332031 11.72607099666358)"><text x="0" y="0" font-family="Virgil, Segoe UI Emoji" font-size="18.355906861069705px" fill="#000000" text-anchor="start" style="white-space: pre;" direction="ltr" dominant-baseline="text-before-edge">I</text></g><g stroke-linecap="round" transform="translate(250 110) rotate(0 20.69815466649385 21.915693176287636)"><path d="M-1.13 1.53 C6.68 -0.73, 16.93 0.86, 43.22 1.36 M-0.94 -0.31 C10.87 -0.14, 20.79 -0.11, 41.91 -0.33 M39.99 -1.83 C41.11 11.64, 43.39 19.79, 41.35 44.44 M41.68 -0.31 C41.69 14.94, 40.27 30.63, 41 43.87 M41.42 45.16 C25.98 44.46, 16 43.69, 0.46 45.03 M41.57 43.16 C30.41 43.32, 19.58 44.4, -0.58 42.85 M0.71 43.29 C1.99 28.88, -1.47 17.16, 1.47 -1.07 M0.53 43.17 C0.81 29.1, -1.15 13.63, -0.2 0.35" stroke="#000000" stroke-width="4" fill="none"></path></g><g transform="translate(263.81815741307594 119.41569317628765) rotate(0 6.879997253417969 12.5)"><text x="6.879997253417969" y="0" font-family="Virgil, Segoe UI Emoji" font-size="20px" fill="#000000" text-anchor="middle" style="white-space: pre;" direction="ltr" dominant-baseline="text-before-edge">0</text></g><g stroke-linecap="round" transform="translate(291.3963093329794 110) rotate(0 20.69815466649385 21.915693176287636)"><path d="M1.53 -1.78 C15.15 0.23, 32.93 2.06, 42.75 -0.95 M-0.31 0.41 C15.64 0.25, 31.23 0.91, 41.06 -0.58 M39.57 -0.42 C42.2 16.35, 39.76 28.94, 42.01 44.73 M41.08 0.48 C41.33 10.38, 41.9 22.26, 41.43 44.11 M42.72 41.97 C28.41 45.56, 13.86 44.29, 1.2 43.11 M40.73 43.77 C32.39 43.95, 24.68 43.33, -0.98 44.04 M-0.54 45.41 C-0.7 32.86, 1.64 27.09, -1.07 0.69 M-0.66 44.82 C0.12 27.94, -0.68 13.8, 0.35 0.31" stroke="#000000" stroke-width="4" fill="none"></path></g><g transform="translate(305.21446674605534 119.41569317628765) rotate(0 6.879997253417969 12.5)"><text x="6.879997253417969" y="0" font-family="Virgil, Segoe UI Emoji" font-size="20px" fill="#000000" text-anchor="middle" style="white-space: pre;" direction="ltr" dominant-baseline="text-before-edge">0</text></g><g stroke-linecap="round" transform="translate(332.84842251433474 110) rotate(0 20.69815466649385 21.915693176287636)"><path d="M-1.78 -1.03 C9.47 0.25, 20.77 1.04, 40.45 1.52 M0.41 0.08 C14.44 0.23, 29.67 -0.21, 40.81 0.31 M40.98 1.05 C42.94 9.23, 41.04 21.83, 42.29 43 M41.87 -0.17 C40.57 14.54, 41.12 28.3, 41.67 44.16 M39.54 44.61 C32.11 44.1, 19.84 45.31, -0.72 42.08 M41.34 43.61 C31.87 44.41, 21.68 42.57, 0.21 42.91 M1.58 42.95 C-2.03 33.91, 1.31 19.97, 0.69 0.81 M0.99 43.76 C-1.2 31.67, -0.43 21.59, 0.31 0.73" stroke="#000000" stroke-width="4" fill="none"></path></g><g transform="translate(350.836578096356 119.41569317628765) rotate(0 2.7099990844726562 12.5)"><text x="2.7099990844726562" y="0" font-family="Virgil, Segoe UI Emoji" font-size="20px" fill="#000000" text-anchor="middle" style="white-space: pre;" direction="ltr" dominant-baseline="text-before-edge">1</text></g><g stroke-linecap="round" transform="translate(374.24473184733233 110) rotate(0 20.69815466649385 21.915693176287636)"><path d="M-1.03 0 C10.64 2.19, 21.5 -0.58, 42.92 1.04 M0.08 -0.14 C8.61 0.35, 16.68 -0.75, 41.7 -0.58 M42.45 1.85 C39.61 10.02, 41.6 21.04, 40.57 44.28 M41.23 -0.95 C41.67 13.99, 41.3 29.05, 41.72 43.49 M42.17 45.55 C28.93 43.9, 17.68 42.73, -1.76 42.46 M41.17 43.88 C29.11 43.23, 14.12 44.02, -0.92 43.43 M-0.88 41.96 C1.59 30.59, -0.96 15.11, 0.81 -0.85 M-0.07 42.86 C-0.58 28.18, 0.64 13.24, 0.73 -0.78" stroke="#000000" stroke-width="4" fill="none"></path></g><g transform="translate(388.06288926040827 119.41569317628765) rotate(0 6.879997253417969 12.5)"><text x="6.879997253417969" y="0" font-family="Virgil, Segoe UI Emoji" font-size="20px" fill="#000000" text-anchor="middle" style="white-space: pre;" direction="ltr" dominant-baseline="text-before-edge">0</text></g><g stroke-linecap="round" transform="translate(416.0468873502441 110) rotate(0 20.69815466649385 21.915693176287636)"><path d="M0 0.57 C17.4 1.57, 30.21 1.73, 42.44 -1.89 M-0.14 0.1 C11.66 -0.37, 21.7 0.27, 40.82 -0.7 M43.25 -1.38 C41.26 9.75, 42.2 17.45, 41.84 44.4 M40.45 0.41 C41.21 11.81, 41.88 23.87, 41.06 43.84 M43.12 43.83 C26.69 45.19, 10.35 42.24, -1.38 44.18 M41.44 44.69 C31.17 42.75, 22.31 42.82, -0.4 44.19 M-1.87 45.3 C1.12 30.79, 0.35 20.69, -0.85 1.05 M-0.97 42.96 C-0.63 33.91, -0.13 24.03, -0.78 -0.69" stroke="#000000" stroke-width="4" fill="none"></path></g><g transform="translate(434.03504293226536 119.41569317628765) rotate(0 2.7099990844726562 12.5)"><text x="2.7099990844726562" y="0" font-family="Virgil, Segoe UI Emoji" font-size="20px" fill="#000000" text-anchor="middle" style="white-space: pre;" direction="ltr" dominant-baseline="text-before-edge">1</text></g><g stroke-linecap="round" transform="translate(457.4431966832353 110) rotate(0 20.69815466649385 21.915693176287636)"><path d="M0.57 1.82 C10.09 -0.95, 18.98 1.04, 39.51 -0.62 M0.1 0.52 C13.79 -0.53, 28.55 -0.52, 40.69 -0.92 M40.01 -0.05 C42.24 13.12, 40.8 24.91, 41.96 43.2 M41.81 -0.4 C41.36 15.51, 41.65 30.12, 41.41 44.49 M41.39 44.29 C34.02 43.47, 22.49 42.81, 0.35 42.49 M42.25 43.26 C28.23 44.06, 16.12 43.45, 0.36 43.56 M1.47 45.3 C-0.88 27.91, 1 9.75, 1.05 -1.31 M-0.87 43.64 C0.38 26.65, 0.76 8.07, -0.69 0.78" stroke="#000000" stroke-width="4" fill="none"></path></g><g transform="translate(471.02135623254173 119.41569317628765) rotate(0 7.1199951171875 12.5)"><text x="7.1199951171875" y="0" font-family="Virgil, Segoe UI Emoji" font-size="20px" fill="#000000" text-anchor="middle" style="white-space: pre;" direction="ltr" dominant-baseline="text-before-edge">2</text></g><g stroke-linecap="round" transform="translate(498.83950601622564 110) rotate(0 20.69815466649385 21.915693176287636)"><path d="M1.82 1.36 C9.34 1.4, 21.62 -2.01, 40.78 0.82 M0.52 -0.33 C12.17 0.26, 24.92 -0.74, 40.48 -0.21 M41.35 0.61 C42.7 14.63, 42.25 31.49, 40.77 44.78 M41 0.04 C41.26 12.74, 40.64 24.84, 42.06 42.9 M41.85 45.03 C26.65 42.07, 11.98 44.18, -1.34 43.71 M40.82 42.85 C30.11 43.26, 18 44.54, -0.27 44.62 M1.47 42.76 C1.1 33.41, -0.44 22.43, -1.31 1.98 M-0.2 44.18 C0.74 31.71, -0.35 17.43, 0.78 -0.9" stroke="#000000" stroke-width="4" fill="none"></path></g><g transform="translate(512.7276631241258 119.41569317628765) rotate(0 6.80999755859375 12.5)"><text x="6.80999755859375" y="0" font-family="Virgil, Segoe UI Emoji" font-size="20px" fill="#000000" text-anchor="middle" style="white-space: pre;" direction="ltr" dominant-baseline="text-before-edge">3</text></g><g stroke-linecap="round" transform="translate(540.2358153492087 110) rotate(0 20.69815466649385 21.915693176287636)"><path d="M1.36 -0.95 C13.93 0.67, 22.94 -0.99, 42.22 0.16 M-0.33 -0.58 C12.16 -0.79, 23.01 -1.13, 41.19 0.53 M42.01 0.89 C40.26 17.66, 41.66 33.8, 42.35 43.5 M41.43 0.28 C41.9 8.66, 41.59 18.67, 40.47 44.22 M42.6 43.11 C23.66 42.55, 9.78 42.59, -0.12 43.39 M40.41 44.04 C27.87 43.19, 16.54 43.32, 0.79 43.39 M-1.07 44.52 C0.49 33.93, 0.73 24.42, 1.98 -0.14 M0.35 44.14 C1.11 34.17, -0.31 26.85, -0.9 0.67" stroke="#000000" stroke-width="4" fill="none"></path></g><g transform="translate(556.2739739829877 119.41569317628765) rotate(0 4.659996032714844 12.5)"><text x="4.659996032714844" y="0" font-family="Virgil, Segoe UI Emoji" font-size="20px" fill="#a61e4d" text-anchor="middle" style="white-space: pre;" direction="ltr" dominant-baseline="text-before-edge">?</text></g><g transform="translate(190 70) rotate(0 27.249969482421875 12.5)"><text x="0" y="0" font-family="Virgil, Segoe UI Emoji" font-size="20px" fill="#000000" text-anchor="start" style="white-space: pre;" direction="ltr" dominant-baseline="text-before-edge">string</text></g><g transform="translate(196.8604769859203 115.49994856317434) rotate(0 6.80999755859375 12.5)"><text x="0" y="0" font-family="Virgil, Segoe UI Emoji" font-size="20px" fill="#000000" text-anchor="start" style="white-space: pre;" direction="ltr" dominant-baseline="text-before-edge">π</text></g><g transform="translate(130 190) rotate(0 303.08428955078125 79.99999999999997)"><text x="0" y="0" font-family="Cascadia, Segoe UI Emoji" font-size="14.814814814814811px" fill="#000000" text-anchor="start" style="white-space: pre;" direction="ltr" dominant-baseline="text-before-edge">   此时 i 和 j 指针指向的字符无法与前面已经匹配到的字符组成更长的公共前后缀，</text><text x="0" y="17.77777777777777" font-family="Cascadia, Segoe UI Emoji" font-size="14.814814814814811px" fill="#000000" text-anchor="start" style="white-space: pre;" direction="ltr" dominant-baseline="text-before-edge">因此 j 指针需要移动。</text><text x="0" y="35.55555555555554" font-family="Cascadia, Segoe UI Emoji" font-size="14.814814814814811px" fill="#000000" text-anchor="start" style="white-space: pre;" direction="ltr" dominant-baseline="text-before-edge">   如何移动？j 之前的 x 个元素与 i 之前的 x 个元素是完全相等的，所以只需要</text><text x="0" y="53.333333333333314" font-family="Cascadia, Segoe UI Emoji" font-size="14.814814814814811px" fill="#000000" text-anchor="start" style="white-space: pre;" direction="ltr" dominant-baseline="text-before-edge">在 j 之前的元素中找出「相等的尽可能长的前缀与尽可能长的后缀」，这样与后方字母</text><text x="0" y="71.11111111111109" font-family="Cascadia, Segoe UI Emoji" font-size="14.814814814814811px" fill="#000000" text-anchor="start" style="white-space: pre;" direction="ltr" dominant-baseline="text-before-edge">连接时，才有可能成为相等的前后缀。</text><text x="0" y="88.88888888888886" font-family="Cascadia, Segoe UI Emoji" font-size="14.814814814814811px" fill="#000000" text-anchor="start" style="white-space: pre;" direction="ltr" dominant-baseline="text-before-edge">   而「相等的尽可能长的前缀与尽可能长的后缀」在前缀函数中已经记录过了，按照单调+1</text><text x="0" y="106.66666666666663" font-family="Cascadia, Segoe UI Emoji" font-size="14.814814814814811px" fill="#000000" text-anchor="start" style="white-space: pre;" direction="ltr" dominant-baseline="text-before-edge">递增的性质，无疑就是 π(j-1) 保存的位置。</text><text x="0" y="124.4444444444444" font-family="Cascadia, Segoe UI Emoji" font-size="14.814814814814811px" fill="#000000" text-anchor="start" style="white-space: pre;" direction="ltr" dominant-baseline="text-before-edge">   于是 j 退回到了 π(j-1) 保存的位置 G，j = 1； G 再与 I 比较，相等，所以问号</text><text x="0" y="142.22222222222217" font-family="Cascadia, Segoe UI Emoji" font-size="14.814814814814811px" fill="#000000" text-anchor="start" style="white-space: pre;" direction="ltr" dominant-baseline="text-before-edge">处应该填 2。代码如下：</text></g><g transform="translate(310 30) rotate(0 4.6875 9.600000000000001)"><text x="0" y="0" font-family="Cascadia, Segoe UI Emoji" font-size="16px" fill="#862e9c" text-anchor="start" style="white-space: pre;" direction="ltr" dominant-baseline="text-before-edge">G</text></g><g transform="translate(134.2161722294161 363.7871320198004) rotate(0 271.875 48)"><text x="0" y="0" font-family="Cascadia, Segoe UI Emoji" font-size="16px" fill="#000000" text-anchor="start" style="white-space: pre;" direction="ltr" dominant-baseline="text-before-edge"> for (let j = 0, i = 1; i &lt; n; ++i) {</text><text x="0" y="19.2" font-family="Cascadia, Segoe UI Emoji" font-size="16px" fill="#000000" text-anchor="start" style="white-space: pre;" direction="ltr" dominant-baseline="text-before-edge">    while (j &gt; 0 &amp;&amp; string[j] !== string[i]) j = pi[j - 1]</text><text x="0" y="38.4" font-family="Cascadia, Segoe UI Emoji" font-size="16px" fill="#000000" text-anchor="start" style="white-space: pre;" direction="ltr" dominant-baseline="text-before-edge">    if (string[j] === string[i]) j++ </text><text x="0" y="57.599999999999994" font-family="Cascadia, Segoe UI Emoji" font-size="16px" fill="#000000" text-anchor="start" style="white-space: pre;" direction="ltr" dominant-baseline="text-before-edge">    pi[i] = j                        </text><text x="0" y="76.8" font-family="Cascadia, Segoe UI Emoji" font-size="16px" fill="#000000" text-anchor="start" style="white-space: pre;" direction="ltr" dominant-baseline="text-before-edge"> }</text></g></svg>